{
  "accessors": [
    {
      "bufferView": 2,
      "componentType": 5126,
      "count": 193,
      "max": [
        1,
        1,
        1
      ],
      "min": [
        -1,
        -1,
        -1.0083380937576294
      ],
      "type": "VEC3"
    },
    {
      "bufferView": 2,
      "byteOffset": 2316,
      "componentType": 5126,
      "count": 193,
      "max": [
        0.97535926103591919,
        0.97310572862625122,
        1
      ],
      "min": [
        -0.97535926103591919,
        -0.97310572862625122,
        -0.92953765392303467
      ],
      "type": "VEC3"
    },
    {
      "bufferView": 3,
      "componentType": 5126,
      "count": 193,
      "max": [
        1,
        0.96522355079650879,
        0.97535926103591919,
        1
      ],
      "min": [
        -0.88654738664627075,
        -0.97443002462387085,
        -0.97535932064056396,
        -1
      ],
      "type": "VEC4"
    },
    {
      "bufferView": 1,
      "componentType": 5126,
      "count": 193,
      "max": [
        1.4279730319976807,
        1.4786664247512817
      ],
      "min": [
        -0.52936047315597534,
        -0.47866666316986084
      ],
      "type": "VEC2"
    },
    {
      "bufferView": 0,
      "componentType": 5125,
      "count": 954,
      "max": [
        192
      ],
      "min": [
        0
      ],
      "type": "SCALAR"
    },
    {
      "bufferView": 2,
      "byteOffset": 4632,
      "componentType": 5126,
      "count": 64,
      "max": [
        0.98047614097595215,
        0.98047596216201782,
        0.9463309645652771
      ],
      "min": [
        -0.98047608137130737,
        -0.98047620058059692,
        -0.98655331134796143
      ],
      "type": "VEC3"
    },
    {
      "bufferView": 2,
      "byteOffset": 5400,
      "componentType": 5126,
      "count": 64,
      "max": [
        0.54925829172134399,
        0.54748862981796265,
        -0.83545923233032227
      ],
      "min": [
        -0.54925829172134399,
        -0.54748862981796265,
        -0.89045089483261108
      ],
      "type": "VEC3"
    },
    {
      "bufferView": 3,
      "byteOffset": 3088,
      "componentType": 5126,
      "count": 64,
      "max": [
        0.99950438737869263,
        0.99591439962387085,
        0.54925829172134399,
        1
      ],
      "min": [
        -0.88654732704162598,
        -0.99402785301208496,
        -0.54925835132598877,
        -1
      ],
      "type": "VEC4"
    },
    {
      "bufferView": 1,
      "byteOffset": 1544,
      "componentType": 5126,
      "count": 64,
      "max": [
        1.4088656902313232,
        1.4595592021942139
      ],
      "min": [
        -0.51025313138961792,
        -0.45955914258956909
      ],
      "type": "VEC2"
    },
    {
      "bufferView": 0,
      "byteOffset": 3816,
      "componentType": 5125,
      "count": 192,
      "max": [
        63
      ],
      "min": [
        0
      ],
      "type": "SCALAR"
    },
    {
      "bufferView": 2,
      "byteOffset": 6168,
      "componentType": 5126,
      "count": 288,
      "max": [
        2.0321938991546631,
        1.0010823011398315,
        0.0020000005606561899
      ],
      "min": [
        -1.0941932201385498,
        -1.0009995698928833,
        -0.0020000005606561899
      ],
      "type": "VEC3"
    },
    {
      "bufferView": 2,
      "byteOffset": 9624,
      "componentType": 5126,
      "count": 288,
      "max": [
        1,
        0.99998855590820312,
        0.70731097459793091
      ],
      "min": [
        -0.99999833106994629,
        -0.99994003772735596,
        -0.70731097459793091
      ],
      "type": "VEC3"
    },
    {
      "bufferView": 0,
      "byteOffset": 4584,
      "componentType": 5125,
      "count": 864,
      "max": [
        287
      ],
      "min": [
        0
      ],
      "type": "SCALAR"
    }
  ],
  "asset": {
    "extras": {
      "author": "Glitch5970 (https://sketchfab.com/Glitch5970)",
      "license": "CC-BY-4.0 (http://creativecommons.org/licenses/by/4.0/)",
      "source": "https://sketchfab.com/3d-models/party-hat-v2-db1d4af0093341c39dce4d235c733d21",
      "title": "Party Hat v2"
    },
    "generator": "Sketchfab-7.27.0",
    "version": "2.0"
  },
  "bufferViews": [
    {
      "buffer": 0,
      "byteLength": 8040,
      "byteOffset": 0,
      "name": "floatBufferViews",
      "target": 34963
    },
    {
      "buffer": 0,
      "byteLength": 2056,
      "byteOffset": 8040,
      "byteStride": 8,
      "name": "floatBufferViews",
      "target": 34962
    },
    {
      "buffer": 0,
      "byteLength": 13080,
      "byteOffset": 10096,
      "byteStride": 12,
      "name": "floatBufferViews",
      "target": 34962
    },
    {
      "buffer": 0,
      "byteLength": 4112,
      "byteOffset": 23176,
      "byteStride": 16,
      "name": "floatBufferViews",
      "target": 34962
    }
  ],
  "buffers": [
    {
      "byteLength": 27288,
      "uri": "scene.bin"
    }
  ],
  "images": [
    {
      "uri": "textures/material_baseColor.png"
    },
    {
      "uri": "textures/material_metallicRoughness.png"
    },
    {
      "uri": "textures/material_1_metallicRoughness.png"
    }
  ],
  "materials": [
    {
      "doubleSided": true,
      "emissiveFactor": [
        0,
        0,
        0
      ],
      "name": "material",
      "pbrMetallicRoughness": {
        "baseColorFactor": [
          1,
          1,
          1,
          1
        ],
        "baseColorTexture": {
          "index": 0,
          "texCoord": 0
        },
        "metallicFactor": 0.35318182742956911,
        "metallicRoughnessTexture": {
          "index": 1,
          "texCoord": 0
        },
        "roughnessFactor": 1
      }
    },
    {
      "doubleSided": true,
      "emissiveFactor": [
        0,
        0,
        0
      ],
      "name": "material_1",
      "pbrMetallicRoughness": {
        "baseColorFactor": [
          0.79999999999999993,
          0.0030154299999999986,
          0,
          1
        ],
        "metallicFactor": 0.735000009247751,
        "metallicRoughnessTexture": {
          "index": 2,
          "texCoord": 0
        },
        "roughnessFactor": 1
      }
    },
    {
      "doubleSided": true,
      "emissiveFactor": [
        0,
        0,
        0
      ],
      "name": "Wire",
      "pbrMetallicRoughness": {
        "baseColorFactor": [
          0.80000000000000004,
          0.80000000000000004,
          0.80000000000000004,
          1
        ],
        "metallicFactor": 0.46833334258108428,
        "roughnessFactor": 1
      }
    }
  ],
  "meshes": [
    {
      "name": "Cone_Hat_0",
      "primitives": [
        {
          "attributes": {
            "NORMAL": 1,
            "POSITION": 0,
            "TANGENT": 2,
            "TEXCOORD_0": 3
          },
          "indices": 4,
          "material": 0,
          "mode": 4
        }
      ]
    },
    {
      "name": "Cone_Red_0",
      "primitives": [
        {
          "attributes": {
            "NORMAL": 6,
            "POSITION": 5,
            "TANGENT": 7,
            "TEXCOORD_0": 8
          },
          "indices": 9,
          "material": 1,
          "mode": 4
        }
      ]
    },
    {
      "name": "BezierCircle_Wire_0",
      "primitives": [
        {
          "attributes": {
            "NORMAL": 11,
            "POSITION": 10
          },
          "indices": 12,
          "material": 2,
          "mode": 4
        }
      ]
    }
  ],
  "nodes": [
    {
      "children": [
        1
      ],
      "name": "RootNode (gltf orientation matrix)",
      "rotation": [
        -0.70710678118654746,
        -0,
        -0,
        0.70710678118654757
      ]
    },
    {
      "children": [
        2
      ],
      "name": "RootNode (model correction matrix)"
    },
    {
      "children": [
        3
      ],
      "matrix": [
        1,
        0,
        0,
        0,
        0,
        0,
        1,
        0,
        0,
        -1,
        0,
        0,
        0,
        0,
        0,
        1
      ],
      "name": "67233113cad2478b981dc1b76d5f0e9d.fbx"
    },
    {
      "children": [
        4
      ],
      "name": "RootNode"
    },
    {
      "children": [
        5,
        6,
        7
      ],
      "matrix": [
        100,
        0,
        0,
        0,
        0,
        -1.6292067939183141e-05,
        -99.999999999998678,
        0,
        0,
        99.999999999998678,
        -1.6292067939183141e-05,
        0,
        0,
        0,
        0,
        1
      ],
      "name": "Cone"
    },
    {
      "mesh": 0,
      "name": "Cone_Hat_0"
    },
    {
      "mesh": 1,
      "name": "Cone_Red_0"
    },
    {
      "children": [
        8
      ],
      "matrix": [
        0.84326678514480591,
        0,
        0,
        0,
        0,
        1.0053291320800781,
        -2.646977960169688e-23,
        0,
        0,
        2.6077501183738446e-23,
        0.99043029546737671,
        0,
        -0.046851620078086853,
        0,
        -0.99132394790649414,
        1
      ],
      "name": "BezierCircle"
    },
    {
      "mesh": 2,
      "name": "BezierCircle_Wire_0"
    }
  ],
  "samplers": [
    {
      "magFilter": 9729,
      "minFilter": 9987,
      "wrapS": 10497,
      "wrapT": 10497
    }
  ],
  "scene": 0,
  "scenes": [
    {
      "name": "OSG_Scene",
      "nodes": [
        0
      ]
    }
  ],
  "textures": [
    {
      "sampler": 0,
      "source": 0
    },
    {
      "sampler": 0,
      "source": 1
    },
    {
      "sampler": 0,
      "source": 2
    }
  ]
}

